<svg width="128" height="128" viewBox="0 0 128 128" fill="none" xmlns="http://www.w3.org/2000/svg">
  <!-- 背景圆形 -->
  <circle cx="64" cy="64" r="60" fill="#FF6B6B"/>
  
  <!-- 装饰性波浪线 -->
  <path d="M20 60C30 50 40 70 50 60C60 50 70 70 80 60C90 50 100 70 110 60" stroke="#FFFFFF" stroke-width="3" stroke-linecap="round"/>
  
  <!-- 主屏幕元素 -->
  <rect x="30" y="35" width="68" height="58" rx="8" fill="#FFE66D" stroke="#FFFFFF" stroke-width="3"/>
  
  <!-- 弹幕气泡 -->
  <path d="M40 45C40 43.3431 41.3431 42 43 42H85C86.6569 42 88 43.3431 88 45V53C88 54.6569 86.6569 56 85 56H80L75 60V56H43C41.3431 56 40 54.6569 40 53V45Z" fill="#FFFFFF"/>
  <path d="M40 65C40 63.3431 41.3431 62 43 62H80C81.6569 62 83 63.3431 83 65V73C83 74.6569 81.6569 76 80 76H43C41.3431 76 40 74.6569 40 73V65Z" fill="#FFFFFF"/>
  
  <!-- 图表元素 -->
  <rect x="45" y="80" width="8" height="8" rx="2" fill="#4ECDC4"/>
  <rect x="57" y="74" width="8" height="14" rx="2" fill="#4ECDC4"/>
  <rect x="69" y="78" width="8" height="10" rx="2" fill="#4ECDC4"/>
  <rect x="81" y="70" width="8" height="18" rx="2" fill="#4ECDC4"/>
  
  <!-- 表情元素 -->
  <circle cx="50" cy="50" r="2" fill="#FF6B6B"/>
  <circle cx="76" cy="50" r="2" fill="#FF6B6B"/>
  <path d="M55 68C57.2091 68 59 69.7909 59 72C59 74.2091 57.2091 76 55 76C52.7909 76 51 74.2091 51 72C51 69.7909 52.7909 68 55 68Z" fill="#FF6B6B"/>
  
  <!-- 高光效果 -->
  <circle cx="50" cy="40" r="15" fill="#FFFFFF" opacity="0.2"/>
</svg>